<svg version="1.1" id="Layer_1" xmlns="http://www.w3.org/2000/svg" x="0" y="0" viewBox="0 0 256 256" style="enable-background:new 0 0 256 256" xml:space="preserve"><style>.st1{fill:#ffefe4}.st2{fill:#69ebfc}.st3{fill:#5fd4e3}.st9{fill:#ff8354}.st11{fill:#6770e6}</style><path class="st2" d="M193 256H63c-8.837 0-16-7.163-16-16V16c0-8.837 7.163-16 16-16h130c8.837 0 16 7.163 16 16v224c0 8.837-7.163 16-16 16z"/><path class="st2" d="M193 256H63c-8.837 0-16-7.163-16-16V16c0-8.837 7.163-16 16-16h130c8.837 0 16 7.163 16 16v224c0 8.837-7.163 16-16 16z"/><path d="M193 0H63c-8.837 0-16 7.163-16 16v6c0-8.837 7.163-16 16-16h130c8.837 0 16 7.163 16 16v-6c0-8.837-7.163-16-16-16z" style="fill:#a1f1fc"/><path class="st11" d="M57 238V30a8 8 0 0 1 8-8h126a8 8 0 0 1 8 8v208a8 8 0 0 1-8 8H65a8 8 0 0 1-8-8z"/><path d="M65 246h126a8 8 0 0 0 8-8v-39.404L57 134v104a8 8 0 0 0 8 8z" style="fill:#ea82fa"/><path d="M67 50a8 8 0 0 1 8-8h106a8 8 0 0 1 0 16H75a8 8 0 0 1-8-8z" style="fill:#fff7f2"/><path class="st3" d="M156 15h-56a4 4 0 0 1 0-8h56a4 4 0 0 1 0 8z"/><circle class="st3" cx="170" cy="11" r="4"/><circle class="st9" cx="75" cy="50" r="5"/><path class="st2" d="M83 236h-8a8 8 0 0 1-8-8v-8a8 8 0 0 1 8-8h8a8 8 0 0 1 8 8v8a8 8 0 0 1-8 8z"/><circle class="st1" cx="79" cy="224" r="5"/><path d="M115.667 236h-8a8 8 0 0 1-8-8v-8a8 8 0 0 1 8-8h8a8 8 0 0 1 8 8v8a8 8 0 0 1-8 8z" style="fill:#858eff"/><path class="st9" d="M111.667 224v-5h11.931c-.493-3.945-3.852-7-7.931-7h-8a7.975 7.975 0 0 0-5.657 2.343l9.657 9.657z"/><path class="st1" d="M111.667 219v5l3.521 3.521-8.424 8.424c.297.033.597.054.903.054h8a8 8 0 0 0 8-8v-8c0-.339-.028-.672-.069-1h-11.931zM148.333 236h-8a8 8 0 0 1-8-8v-8a8 8 0 0 1 8-8h8a8 8 0 0 1 8 8v8a8 8 0 0 1-8 8z"/><path class="st11" d="M181 236h-8a8 8 0 0 1-8-8v-8a8 8 0 0 1 8-8h8a8 8 0 0 1 8 8v8a8 8 0 0 1-8 8z"/><path class="st9" d="M173 232c-2.206 0-4-1.794-4-4v-8c0-2.206 1.794-4 4-4h8c2.206 0 4 1.794 4 4v8c0 2.206-1.794 4-4 4h-8z"/><circle class="st11" cx="111.667" cy="224" r="5"/><path class="st2" d="M150.414 223.3 141 218.279a.793.793 0 0 0-1.166.7v10.042c0 .598.638.981 1.166.7l9.414-5.021a.794.794 0 0 0 0-1.4z"/><circle class="st1" cx="128" cy="99" r="21"/><path class="st1" d="M152 136h-48a4 4 0 0 1 0-8h48a4 4 0 0 1 0 8z"/><path class="st3" d="M193 250H63c-8.837 0-16-7.163-16-16v6c0 8.837 7.163 16 16 16h130c8.837 0 16-7.163 16-16v-6c0 8.837-7.163 16-16 16z"/></svg>